<svg xmlns="http://www.w3.org/2000/svg" height="48" viewBox="0 96 960 960" width="48"><path d="M480.059 934.5Q330.5 934.5 226 829.912q-104.5-104.589-104.5-254 0-149.412 104.562-254.162Q330.625 217 480 217q6.854 0 15.177.5T517 219q-35.5 32.5-54.75 79T443 395.812q0 90.73 63.292 153.959Q569.583 613 660 613q51.377 0 97.856-17.794Q804.335 577.411 837 545q1 11.5 1.5 18.323T839 576q0 149.375-104.691 253.938Q629.618 934.5 480.059 934.5Zm.104-57.5Q589 877 670.75 808.75 752.5 740.5 773 648q-25.833 10.955-55.083 16.727-29.25 5.773-57.822 5.773-114.105 0-194.35-80.245Q385.5 510.01 385.5 395.905q0-23.905 5.023-51.988Q395.545 315.833 409 280q-99.5 27.5-164.75 110.514T179 576.174q0 125.362 87.841 213.094Q354.681 877 480.163 877ZM476.5 578.5Z"/></svg>