<svg xmlns="http://www.w3.org/2000/svg" height="48" viewBox="0 96 960 960" width="48"><path d="M480 929.5 441 894q-104.766-96.072-173.419-166.093-68.652-70.021-109.401-124.866-40.749-54.844-56.964-99.416Q85 459.053 85 413.5q0-88.505 59.498-148.002Q203.995 206 291.5 206q56.288 0 104.644 27Q444.5 260 480 311.5q42-54 88.185-79.75Q614.371 206 668.629 206q87.38 0 146.876 59.443Q875 324.886 875 413.308q0 45.73-16.216 90.309-16.215 44.58-56.964 99.424-40.749 54.845-109.401 124.866Q623.766 797.928 519 894l-39 35.5Z"/></svg>