<svg width="92" height="31" viewBox="0 0 92 31" fill="none" xmlns="http://www.w3.org/2000/svg">
<path d="M16.2801 25.28C15.2534 25.28 14.3201 24.9813 13.4801 24.384C12.6401 23.768 11.7628 22.7133 10.8481 21.22L8.0481 16.544H6.9281V25H3.2601V10.16C3.2601 9.208 3.12943 8.508 2.8681 8.06C2.60676 7.59333 2.0841 7.36 1.3001 7.36H1.0201V6.52H8.7481C10.6894 6.52 12.4348 6.87467 13.9841 7.584C15.5334 8.29333 16.3081 9.656 16.3081 11.672C16.3081 14.0053 14.7961 15.5547 11.7721 16.32L14.7121 21.22C15.8134 23.068 16.9708 24.0947 18.1841 24.3V25C18.0348 25.0747 17.7641 25.14 17.3721 25.196C16.9801 25.252 16.6161 25.28 16.2801 25.28ZM8.6081 15.424C9.65343 15.424 10.5401 15.116 11.2681 14.5C12.0148 13.8653 12.3881 12.876 12.3881 11.532C12.3881 10.2067 12.0241 9.22667 11.2961 8.592C10.5681 7.95733 9.71876 7.64 8.7481 7.64C8.20676 7.64 7.78676 7.67733 7.4881 7.752L6.9281 7.836V15.424H8.6081ZM25.1113 25.28C23.8233 25.28 22.6939 24.9813 21.7233 24.384C20.7526 23.7867 19.9966 22.9747 19.4553 21.948C18.9326 20.9027 18.6713 19.7267 18.6713 18.42C18.6713 16.964 18.9326 15.7227 19.4553 14.696C19.9966 13.6693 20.7339 12.8947 21.6673 12.372C22.6006 11.8307 23.6553 11.56 24.8313 11.56C25.9886 11.56 27.0339 11.7933 27.9673 12.26C28.9006 12.7267 29.6379 13.3893 30.1793 14.248C30.7206 15.088 30.9913 16.0587 30.9913 17.16C30.9913 17.5147 30.9726 17.916 30.9353 18.364L30.8793 18.924H22.4513C22.4513 20.6973 22.7219 21.9947 23.2633 22.816C23.8046 23.6187 24.5606 24.02 25.5313 24.02C26.4273 24.02 27.1739 23.824 27.7713 23.432C28.3873 23.0213 28.9753 22.4427 29.5353 21.696L30.4033 22.34C29.8619 23.18 29.1806 23.88 28.3593 24.44C27.5566 25 26.4739 25.28 25.1113 25.28ZM27.2113 17.664C27.2113 15.9093 27.0059 14.668 26.5953 13.94C26.1846 13.1933 25.5966 12.82 24.8313 12.82C24.1219 12.82 23.5433 13.2027 23.0953 13.968C22.6659 14.7147 22.4513 15.9467 22.4513 17.664H27.2113ZM39.6093 25.28C38.172 25.28 36.9493 24.972 35.9413 24.356C34.9333 23.74 34.168 22.9187 33.6453 21.892C33.1413 20.8467 32.8893 19.6893 32.8893 18.42C32.8893 17.1507 33.1413 16.0027 33.6453 14.976C34.168 13.9307 34.9333 13.1 35.9413 12.484C36.9493 11.868 38.172 11.56 39.6093 11.56C41.8493 11.56 43.296 11.8867 43.9493 12.54C44.2667 12.8573 44.4627 13.2773 44.5373 13.8C44.612 14.3227 44.6493 15.2093 44.6493 16.46H43.8093C43.7347 15.284 43.3707 14.388 42.7173 13.772C42.064 13.1373 41.168 12.82 40.0293 12.82C39.0027 12.82 38.1813 13.296 37.5653 14.248C36.968 15.1813 36.6693 16.572 36.6693 18.42C36.6693 22.1533 37.836 24.02 40.1693 24.02C41.0653 24.02 41.812 23.824 42.4093 23.432C43.0253 23.0213 43.6133 22.4427 44.1733 21.696L45.0413 22.34C44.5 23.18 43.8187 23.88 42.9973 24.44C42.176 25 41.0467 25.28 39.6093 25.28ZM49.804 10.328C49.132 10.328 48.6093 10.1227 48.236 9.712C47.8813 9.30133 47.704 8.79733 47.704 8.2C47.704 7.71467 47.844 7.332 48.124 7.052C48.4226 6.772 48.796 6.632 49.244 6.632C49.916 6.632 50.4293 6.83733 50.784 7.248C51.1573 7.65867 51.344 8.16267 51.344 8.76C51.344 9.24533 51.1946 9.628 50.896 9.908C50.616 10.188 50.252 10.328 49.804 10.328ZM47.984 15.48C47.984 14.528 47.8533 13.828 47.592 13.38C47.3306 12.9133 46.808 12.68 46.024 12.68H45.744V11.84H49.104C49.776 11.84 50.2893 11.952 50.644 12.176C50.9986 12.4 51.2506 12.7733 51.4 13.296C51.5493 13.8 51.624 14.528 51.624 15.48V25H47.984V15.48Z" fill="#402410"/>
<path d="M55.8401 15.48C55.8401 14.528 55.7094 13.828 55.4481 13.38C55.2054 12.9133 54.6921 12.68 53.9081 12.68H53.6281V11.84H56.4001C57.0534 11.84 57.5574 11.9333 57.9121 12.12C58.2668 12.288 58.5468 12.5867 58.7521 13.016C59.8534 12.0453 61.1228 11.56 62.5601 11.56C64.4454 11.56 65.8921 12.204 66.9001 13.492C67.9268 14.7613 68.4401 16.404 68.4401 18.42C68.4401 20.436 67.9174 22.088 66.8721 23.376C65.8454 24.6453 64.3614 25.28 62.4201 25.28C61.6548 25.28 60.9361 25.14 60.2641 24.86C59.9654 24.748 59.7041 24.608 59.4801 24.44V30.32H55.8401V15.48ZM61.8601 24.02C63.7268 24.02 64.6601 22.1533 64.6601 18.42C64.6601 16.7027 64.4454 15.34 64.0161 14.332C63.5868 13.324 62.9148 12.82 62.0001 12.82C60.9548 12.82 60.0494 13.2027 59.2841 13.968L59.3681 14.36C59.4428 14.584 59.4801 14.9013 59.4801 15.312V23.18C59.6854 23.348 59.9094 23.488 60.1521 23.6C60.6748 23.88 61.2441 24.02 61.8601 24.02ZM73.5188 10.328C72.8468 10.328 72.3241 10.1227 71.9508 9.712C71.5961 9.30133 71.4188 8.79733 71.4188 8.2C71.4188 7.71467 71.5588 7.332 71.8388 7.052C72.1375 6.772 72.5108 6.632 72.9588 6.632C73.6308 6.632 74.1441 6.83733 74.4988 7.248C74.8722 7.65867 75.0588 8.16267 75.0588 8.76C75.0588 9.24533 74.9095 9.628 74.6108 9.908C74.3308 10.188 73.9668 10.328 73.5188 10.328ZM71.6988 15.48C71.6988 14.528 71.5681 13.828 71.3068 13.38C71.0455 12.9133 70.5228 12.68 69.7388 12.68H69.4588V11.84H72.8188C73.4908 11.84 74.0041 11.952 74.3588 12.176C74.7135 12.4 74.9655 12.7733 75.1148 13.296C75.2641 13.8 75.3388 14.528 75.3388 15.48V25H71.6988V15.48ZM84.4277 25.28C83.1397 25.28 82.0103 24.9813 81.0397 24.384C80.069 23.7867 79.313 22.9747 78.7717 21.948C78.249 20.9027 77.9877 19.7267 77.9877 18.42C77.9877 16.964 78.249 15.7227 78.7717 14.696C79.313 13.6693 80.0503 12.8947 80.9837 12.372C81.917 11.8307 82.9717 11.56 84.1477 11.56C85.305 11.56 86.3503 11.7933 87.2837 12.26C88.217 12.7267 88.9543 13.3893 89.4957 14.248C90.037 15.088 90.3077 16.0587 90.3077 17.16C90.3077 17.5147 90.289 17.916 90.2517 18.364L90.1957 18.924H81.7677C81.7677 20.6973 82.0383 21.9947 82.5797 22.816C83.121 23.6187 83.877 24.02 84.8477 24.02C85.7437 24.02 86.4903 23.824 87.0877 23.432C87.7037 23.0213 88.2917 22.4427 88.8517 21.696L89.7197 22.34C89.1783 23.18 88.497 23.88 87.6757 24.44C86.873 25 85.7903 25.28 84.4277 25.28ZM86.5277 17.664C86.5277 15.9093 86.3223 14.668 85.9117 13.94C85.501 13.1933 84.913 12.82 84.1477 12.82C83.4383 12.82 82.8597 13.2027 82.4117 13.968C81.9823 14.7147 81.7677 15.9467 81.7677 17.664H86.5277Z" fill="#D26900"/>
</svg>
